# xmcd
#
# Track frame offsets:
#	150
#	9850
#	16880
#	33252
#	46919
#	58137
#	67675
#	72112
#	82796
#	102805
#	115168
#	123493
#	143300
#	157924
#	167506
#	178770
#	198425
#	216444
#	232327
#
# Disc length: 3309 seconds
#
# Revision: 1
# Processed by: cddbd v1.4PL0 Copyright (c) Steve Scherf et al.
# Submitted via: audiograbber 1.82.02
#
DISCID=ed0ceb13
DTITLE=Emrah - Türküler ve Emrah
DYEAR=2003
DGENRE=Pop
TTITLE0=Delilo
TTITLE1=Ýlvanlim
TTITLE2=Yar Diline
TTITLE3=Güzel Diyarým
TTITLE4=Melik Ahmet Güzeli
TTITLE5=Digel Kýz
TTITLE6=Nene
TTITLE7=Uzun Hava
TTITLE8=Baharda Dost Bilinmez
TTITLE9=Bal Dudaklim
TTITLE10=Güler Oynarým
TTITLE11=Hasret Yaðar Daðlara
TTITLE12=Dilber Haným
TTITLE13=Ben Yetim
TTITLE14=Mavi Yelek
TTITLE15=Töre
TTITLE16=Nedendir
TTITLE17=Kýrmýzý Gül
TTITLE18=Odam Kirec Tutmuyor
EXTD=metin@metin.nom.tr
EXTT0=
EXTT1=
EXTT2=
EXTT3=
EXTT4=
EXTT5=
EXTT6=
EXTT7=
EXTT8=
EXTT9=
EXTT10=
EXTT11=
EXTT12=
EXTT13=
EXTT14=
EXTT15=
EXTT16=
EXTT17=
EXTT18=
PLAYORDER=
